<?xml version="1.0" encoding="UTF-8"?>
<!DOCTYPE svg PUBLIC "-//W3C//DTD SVG 1.1//EN" "http://www.w3.org/Graphics/SVG/1.1/DTD/svg11.dtd">
<!-- Creator: CorelDRAW 2021.5 -->
<svg xmlns="http://www.w3.org/2000/svg" xml:space="preserve" width="1.5625in" height="0.388339in" version="1.1" style="shape-rendering:geometricPrecision; text-rendering:geometricPrecision; image-rendering:optimizeQuality; fill-rule:evenodd; clip-rule:evenodd"
viewBox="0 0 19.73 4.9"
 xmlns:xlink="http://www.w3.org/1999/xlink"
 xmlns:xodm="http://www.corel.com/coreldraw/odm/2003">
 <defs>
  <style type="text/css">
   <![CDATA[
    .fil0 {fill:#FEFEFE}
    .fil1 {fill:#FEFEFE;fill-rule:nonzero}
   ]]>
  </style>
    <mask id="id0">
  <linearGradient id="id1" gradientUnits="userSpaceOnUse" x1="8.43" y1="1.94" x2="8.47" y2="8.19">
   <stop offset="0" style="stop-opacity:1; stop-color:white"/>
   <stop offset="1" style="stop-opacity:0; stop-color:white"/>
  </linearGradient>
     <rect style="fill:url(#id1)" x="14.02" y="4.72" width="0.38" height="0.05"/>
    </mask>
 </defs>
 <g id="Capa_x0020_1">
  <metadata id="CorelCorpID_0Corel-Layer"/>
  <g id="_2543451799152">
   <path class="fil0" d="M9.44 2.47c-0.11,0.02 -0.72,-0 -0.89,-0 -0.36,0 -2.65,-0.01 -2.68,-0.02 -0.02,-0.06 0.01,-0.25 0.02,-0.32 0.01,-0.09 0.04,-0.19 0.07,-0.28 0.07,-0.2 0.18,-0.28 0.37,-0.34 0.33,-0.11 0.97,-0.09 1.33,-0.08 0.38,0 1.3,-0.05 1.59,0.17 0.08,0.06 0.12,0.11 0.15,0.21 0.04,0.1 0.05,0.56 0.04,0.67zm-0.36 2.32c-1.01,0.05 -1.83,0.08 -2.73,-0.02l-0.3 -0.06c-0.17,-0.04 -0.39,-0.17 -0.5,-0.3 -0.13,-0.16 -0.22,-0.32 -0.25,-0.54 -0.04,-0.24 -0.07,-0.48 -0.07,-0.72 -0,-0.55 -0.04,-1.59 0.38,-1.98 0.14,-0.12 0.33,-0.24 0.52,-0.27 0.1,-0.01 0.23,-0.05 0.33,-0.06 0.12,-0.01 0.24,-0.03 0.37,-0.03 0.06,-0 0.13,-0 0.19,-0.01 0.13,-0.01 0.25,0 0.38,0.01 0.78,0.01 2.29,-0.12 2.61,0.75 0.09,0.23 0.07,0.47 0.08,0.71 0.01,0.25 0.01,0.54 0,0.79 -0.06,0.01 -0.18,0 -0.25,-0 -0.26,-0.01 -0.55,0.01 -0.8,-0.01 -0.16,-0.01 -0.36,-0.01 -0.53,-0 -0.17,0 -0.36,-0 -0.53,-0 -0.71,-0 -1.42,-0.02 -2.12,-0.01 -0.02,0.14 0.02,0.46 0.05,0.6 0.03,0.15 0.09,0.28 0.2,0.38 0.03,0.03 0.01,0.02 0.05,0.04 0.27,0.16 0.86,0.16 1.17,0.16 0.43,0 0.89,0.02 1.32,-0 0.26,-0.02 0.59,-0.02 0.72,-0.28 0.02,-0.04 0.03,-0.08 0.04,-0.12 0.01,-0.04 0.01,-0.12 0.02,-0.15 0.03,-0.01 0.6,-0.01 0.65,0 0.04,0.08 -0.03,0.43 -0.07,0.52 -0.12,0.32 -0.33,0.48 -0.67,0.56 -0.06,0.01 -0.17,0.04 -0.28,0.05z"/>
   <path class="fil0" d="M14.02 4.89c0.05,-0.01 0.12,-0 0.17,-0.02 0.05,-0.01 0.16,-0.03 0.21,-0.03 0.04,0 0.18,-0.03 0.23,-0.05l0.15 -0.05c0.07,-0.04 0.14,-0.07 0.21,-0.13 0.16,-0.14 0.14,-0.15 0.24,-0.31 0.08,-0.13 0.16,-0.63 0.11,-0.67 -0.03,-0.02 -0.66,-0.02 -0.71,-0 -0.01,0.2 -0.02,0.29 -0.17,0.43 -0.11,0.1 -0.29,0.14 -0.44,0.16 -0.28,0.03 -0.86,0.01 -1.17,0.01 -0.41,-0 -1.25,0.05 -1.48,-0.32 -0.14,-0.22 -0.1,-0.28 -0.13,-0.47l0.02 -0.02 -0.03 -0.01 0 -0.12c0.06,-0.02 0.16,-0.02 0.27,-0.09 0,-0 0,-0 0,-0 0.01,-0.01 0.04,-0.05 0.08,-0.07 0.02,-0.09 0.06,-0.06 0.09,-0.24 0.03,-0.22 -0.12,-0.43 -0.3,-0.48 -0.02,-0.01 -0.11,-0.03 -0.12,-0.03 -0.04,-0.06 0.05,-0.44 0.09,-0.51 0.07,-0.15 0.17,-0.22 0.33,-0.28 0.32,-0.12 0.78,-0.11 1.13,-0.1 0.46,0.01 1.28,-0.06 1.63,0.2 0.15,0.11 0.2,0.22 0.21,0.41 0.07,0.01 0.67,0.02 0.71,0 0.03,-0.09 -0.04,-0.5 -0.1,-0.62 -0.15,-0.28 -0.28,-0.4 -0.58,-0.51 -0.27,-0.09 -0.67,-0.13 -0.96,-0.13 -0.49,-0 -0.97,-0.01 -1.46,-0 -0.37,0 -0.9,0.06 -1.2,0.26 -0.34,0.23 -0.44,0.56 -0.49,0.97 -0.05,0.35 -0.06,1.04 -0.02,1.39 0.04,0.37 0.1,0.82 0.39,1.07 0.12,0.11 0.32,0.2 0.48,0.25 0.18,0.05 0.28,0.07 0.45,0.09 0.73,0.04 1.45,0.05 2.17,0.03z"/>
   <path class="fil0" d="M0.72 2.99c0.01,-0.58 -0.11,-1.17 0.54,-1.48 0.1,-0.05 0.45,-0.15 0.55,-0.1 0.02,0.06 0.01,0.11 0.05,0.18 0.15,0.3 0.53,0.33 0.74,0.12 0.12,-0.12 0.1,-0.21 0.14,-0.3 0.13,-0.02 0.36,0.03 0.48,0.09 0.15,0.06 0.23,0.12 0.34,0.23 0.24,0.25 0.25,0.54 0.24,0.87l-0.03 2.22 0.02 0 0.68 -0.01c-0.01,-0.11 -0,-0.23 0,-0.34l0.01 -0.72c0,-0.36 -0,-0.75 0.01,-1.1 0.01,-0.45 -0.03,-0.82 -0.28,-1.2 -0.15,-0.22 -0.39,-0.37 -0.62,-0.48 -0.26,-0.12 -0.65,-0.16 -0.94,-0.16 -0.47,0.01 -0.95,-0.05 -1.41,0.06 -0.16,0.04 -0.39,0.12 -0.53,0.22 -0.18,0.12 -0.24,0.17 -0.38,0.35 -0.25,0.31 -0.3,0.78 -0.3,1.17 0,0.19 -0,0.38 -0.01,0.57l0 -0.06 -0.01 0.9c0,0.02 0,0.03 0,0.04 0.01,0.05 0.01,0.31 0.01,0.38 -0,0.04 -0.01,0.04 -0.01,0.09l0 0.28c0.04,0.01 0.01,0.02 0.06,0.01 0.04,-0.01 0.04,-0.02 0.07,0l-0 0 0.11 -0c0.01,-0 0.02,-0.01 0.03,-0.01 0.02,0 0.03,0 0.03,0l0.38 -0.02c0,-0 0,-0 0,-0l-0 -0.69c0,-0.07 0.01,-0.15 0.01,-0.21 -0,-0.15 0,-0.31 -0,-0.46l0.01 -0.33c-0,-0.07 -0.01,-0.09 0.01,-0.11z"/>
   <path class="fil0" d="M0.71 4.79l0.01 -1.8c-0.02,0.02 -0.01,0.04 -0.01,0.11l-0.01 0.33c0.01,0.15 -0,0.31 0,0.46 0,0.06 -0.01,0.14 -0.01,0.21l0 0.69c-0,0 -0,0 -0,0l0.01 -0zm-0.39 0.02c-0,-0 -0.01,-0 -0.03,-0 -0.01,-0 -0.02,0 -0.03,0.01l0.06 -0zm-0.17 0.01l0 -0c-0.03,-0.02 -0.04,-0.01 -0.07,-0 -0.05,0.01 -0.02,-0.01 -0.06,-0.01l-0 -0.28c-0,-0.05 0.01,-0.05 0.01,-0.09 0,-0.07 0.01,-0.32 -0.01,-0.38 -0,0 -0,0 -0,0l-0.01 0.76 0.14 -0.01z"/>
   <path class="fil0" d="M14.25 4.9c-0,-0 -0.01,-0 -0.01,-0.01 0.01,-0.01 0.01,-0.01 0.02,-0.01l0.06 -0c0.01,0.02 0,0.01 0.02,0.02l-0.01 -0.02c0.04,0 0.03,0.01 0.06,-0.01 -0.05,-0 -0.16,0.02 -0.21,0.03 -0.05,0.01 -0.11,0.01 -0.17,0.02 0.07,-0 0.13,-0 0.2,-0.01l0.03 0.01z"/>
   <path class="fil1" d="M16.83 0c-0.23,0 -0.32,0.02 -0.4,0.06 -0.13,0.07 -0.18,0.17 -0.19,0.41 -0,0.06 -0.01,0.47 -0.01,0.61 0,0.46 0.02,0.57 0.12,0.68 0.08,0.09 0.2,0.12 0.43,0.12 0.03,0 0.03,0 0.06,0l0 -0.18c-0.21,0 -0.25,-0 -0.3,-0.03 -0.1,-0.04 -0.11,-0.14 -0.11,-0.64 0,-0.08 0.01,-0.52 0.01,-0.55 0.01,-0.14 0.02,-0.19 0.06,-0.24 0.04,-0.04 0.1,-0.06 0.26,-0.06l0.08 0 0 -0.18zm2.03 1.52l-1.62 0 0 -0.06c0,-0.27 0.06,-0.33 0.37,-0.35 0.86,-0.04 0.98,-0.06 1.11,-0.18 0.09,-0.08 0.12,-0.18 0.12,-0.38 0,-0.11 -0.01,-0.21 -0.03,-0.26 -0.04,-0.11 -0.15,-0.19 -0.28,-0.21 -0.1,-0.02 -0.45,-0.04 -0.69,-0.04 -0.17,0 -0.34,0.01 -0.44,0.02 -0.14,0.02 -0.22,0.06 -0.29,0.15 -0.07,0.09 -0.09,0.17 -0.09,0.47l0.21 0c0,-0.17 0,-0.21 0.01,-0.24 0.01,-0.09 0.06,-0.14 0.15,-0.16 0.08,-0.02 0.33,-0.04 0.53,-0.04 0.3,0 0.5,0.02 0.58,0.06 0.08,0.04 0.12,0.13 0.12,0.29 0,0.14 -0.03,0.21 -0.12,0.26 -0.07,0.03 -0.17,0.05 -0.56,0.07 -0.54,0.03 -0.62,0.04 -0.73,0.1 -0.16,0.08 -0.21,0.21 -0.21,0.53 0,0.06 0,0.12 0,0.18l1.84 0 0 -0.19zm0.18 -1.34l0.08 0c0.22,0 0.29,0.03 0.31,0.15 0.01,0.09 0.02,0.34 0.02,0.7 0,0.47 -0.01,0.57 -0.09,0.62 -0.05,0.04 -0.09,0.04 -0.32,0.04l0 0.18c0.02,-0 0.02,-0 0.07,-0 0.22,0 0.34,-0.03 0.41,-0.12 0.1,-0.11 0.12,-0.22 0.12,-0.66 0,-0.14 -0.01,-0.56 -0.01,-0.63 -0.01,-0.24 -0.06,-0.34 -0.19,-0.41 -0.08,-0.04 -0.17,-0.06 -0.4,-0.06l0 0.18z"/>
   <path class="fil1" d="M12.17 2.99l0 0.04c0,0.09 0.02,0.14 0.07,0.18 0.06,0.04 0.16,0.05 0.41,0.05 0.21,0 0.32,-0.01 0.37,-0.04 0.06,-0.03 0.09,-0.09 0.09,-0.18 0,-0.15 -0.07,-0.21 -0.24,-0.22 -0.08,-0 -0.29,-0.01 -0.34,-0.01 -0.18,0 -0.22,-0.02 -0.22,-0.1 0,-0.04 0.01,-0.07 0.03,-0.08 0.03,-0.03 0.13,-0.04 0.3,-0.04 0.18,0 0.27,0.01 0.3,0.05 0.02,0.02 0.02,0.04 0.02,0.09l0.13 0c0,-0.09 -0.01,-0.11 -0.03,-0.15 -0.05,-0.07 -0.16,-0.09 -0.41,-0.09 -0.22,0 -0.33,0.01 -0.38,0.05 -0.05,0.04 -0.08,0.09 -0.08,0.17 0,0.15 0.07,0.2 0.27,0.21 0.28,0 0.31,0 0.34,0 0.15,-0 0.2,0.03 0.2,0.12 0,0.04 -0.01,0.06 -0.03,0.08 -0.04,0.03 -0.09,0.04 -0.3,0.04 -0.33,0 -0.36,-0.01 -0.36,-0.14l-0 -0.02 -0.13 0zm1.49 -0.5c-0.17,0 -0.25,0.01 -0.31,0.04 -0.1,0.05 -0.14,0.16 -0.14,0.33 0,0.18 0.04,0.28 0.13,0.33 0.07,0.04 0.16,0.05 0.38,0.05 0.19,0 0.27,-0.01 0.34,-0.05 0.09,-0.05 0.13,-0.15 0.13,-0.33 0,-0.17 -0.04,-0.27 -0.13,-0.33 -0.06,-0.04 -0.16,-0.05 -0.4,-0.05zm0.02 0.1c0.15,0 0.23,0.01 0.28,0.03 0.08,0.03 0.1,0.1 0.1,0.25 0,0.13 -0.02,0.2 -0.07,0.23 -0.05,0.04 -0.11,0.05 -0.29,0.05 -0.14,0 -0.21,-0.01 -0.26,-0.02 -0.09,-0.03 -0.12,-0.1 -0.12,-0.25 0,-0.24 0.05,-0.28 0.35,-0.28zm0.62 -0.42l0 1.07 0.12 0 0 -1.07 -0.12 0zm0.25 0.33l0 0.41c0,0.15 0.02,0.23 0.07,0.27 0.06,0.05 0.15,0.07 0.34,0.07 0.23,0 0.31,-0.03 0.37,-0.12l0.01 0 0 0.11 0.12 0 0 -0.74 -0.12 0 0 0.37c0,0.11 -0.01,0.16 -0.04,0.19 -0.05,0.06 -0.14,0.09 -0.32,0.09 -0.14,0 -0.21,-0.01 -0.25,-0.05 -0.04,-0.04 -0.05,-0.09 -0.05,-0.23l0 -0.38 -0.12 0zm1.14 -0.18l0 0.18 -0.18 0 0 0.1 0.18 0 0 0.36c0,0.12 0.01,0.16 0.04,0.21 0.04,0.06 0.13,0.08 0.29,0.08 0.16,0 0.24,-0.03 0.28,-0.09 0.03,-0.05 0.04,-0.09 0.04,-0.21l0 -0.05 -0.12 0 0 0.05c0,0.09 -0,0.12 -0.02,0.15 -0.03,0.04 -0.07,0.05 -0.17,0.05 -0.11,0 -0.17,-0.01 -0.2,-0.05 -0.02,-0.03 -0.02,-0.04 -0.03,-0.18l0 -0.32 0.52 0 0 -0.1 -0.52 0 0 -0.18 -0.12 0zm0.74 0.18l0 0.74 0.12 0 0 -0.74 -0.12 0zm0 -0.33l0 0.14 0.12 0 0 -0.14 -0.12 0zm0.69 0.32c-0.17,0 -0.25,0.01 -0.31,0.04 -0.1,0.05 -0.14,0.16 -0.14,0.33 0,0.18 0.04,0.28 0.13,0.33 0.07,0.04 0.16,0.05 0.38,0.05 0.19,0 0.27,-0.01 0.34,-0.05 0.09,-0.05 0.13,-0.15 0.13,-0.33 0,-0.17 -0.04,-0.27 -0.13,-0.33 -0.06,-0.04 -0.16,-0.05 -0.4,-0.05zm0.02 0.1c0.15,0 0.23,0.01 0.28,0.03 0.08,0.03 0.1,0.1 0.1,0.25 0,0.13 -0.02,0.2 -0.07,0.23 -0.05,0.04 -0.11,0.05 -0.29,0.05 -0.14,0 -0.21,-0.01 -0.26,-0.02 -0.09,-0.03 -0.12,-0.1 -0.12,-0.25 0,-0.24 0.05,-0.28 0.35,-0.28zm0.62 -0.09l0 0.74 0.12 0 0 -0.34c0,-0.14 0.01,-0.18 0.04,-0.22 0.05,-0.06 0.14,-0.09 0.33,-0.09 0.16,0 0.24,0.02 0.28,0.06 0.03,0.04 0.04,0.08 0.04,0.22l0 0.37 0.12 0 0 -0.42c0,-0.14 -0.02,-0.2 -0.06,-0.25 -0.06,-0.06 -0.15,-0.08 -0.36,-0.08 -0.24,0 -0.33,0.03 -0.37,0.12l-0.01 0 0 -0.11 -0.12 0zm1.03 0.49l0 0.04c0,0.09 0.02,0.14 0.07,0.18 0.06,0.04 0.16,0.05 0.41,0.05 0.21,0 0.32,-0.01 0.37,-0.04 0.06,-0.03 0.09,-0.09 0.09,-0.18 0,-0.15 -0.07,-0.21 -0.24,-0.22 -0.08,-0 -0.29,-0.01 -0.34,-0.01 -0.18,0 -0.22,-0.02 -0.22,-0.1 0,-0.04 0.01,-0.07 0.03,-0.08 0.03,-0.03 0.13,-0.04 0.3,-0.04 0.18,0 0.27,0.01 0.3,0.05 0.02,0.02 0.02,0.04 0.02,0.09l0.13 0c0,-0.09 -0.01,-0.11 -0.03,-0.15 -0.05,-0.07 -0.16,-0.09 -0.41,-0.09 -0.22,0 -0.33,0.01 -0.38,0.05 -0.05,0.04 -0.08,0.09 -0.08,0.17 0,0.15 0.07,0.2 0.27,0.21 0.28,0 0.31,0 0.34,0 0.15,-0 0.2,0.03 0.2,0.12 0,0.04 -0.01,0.06 -0.03,0.08 -0.04,0.03 -0.09,0.04 -0.3,0.04 -0.33,0 -0.36,-0.01 -0.36,-0.14l-0 -0.02 -0.13 0z"/>
   <path class="fil0" style="mask:url(#id0)" d="M14.25 4.72c-0,0 -0.01,0 -0.01,0.01 0.01,0.01 0.01,0.01 0.02,0.01l0.06 0c0.01,-0.02 0,-0.01 0.02,-0.02l-0.01 0.02c0.04,-0 0.03,-0.01 0.06,0.01 -0.05,0 -0.16,-0.02 -0.21,-0.03 -0.05,-0.01 -0.11,-0.01 -0.17,-0.02 0.07,0 0.13,0 0.2,0.01l0.03 -0.01z"/>
  </g>
 </g>
</svg>
